<mxfile host="app.diagrams.net" modified="2023-09-30T15:48:38.530Z" agent="Mozilla/5.0 (Windows NT 10.0; Win64; x64) AppleWebKit/537.36 (KHTML, like Gecko) Chrome/117.0.0.0 Safari/537.36" version="22.0.0" etag="9AcdEYZKWVRm1khDVgwc" type="github">
  <diagram name="Page-1" id="CqFzHiYC0ysOPp_3ymxK">
    <mxGraphModel>
      <root>
        <mxCell id="0" />
        <mxCell id="1" parent="0" />
      </root>
    </mxGraphModel>
  </diagram>
</mxfile>
